<?xml version="1.0" encoding="UTF-8" standalone="no"?>
<!DOCTYPE svg PUBLIC "-//W3C//DTD SVG 1.1//EN"
 "http://www.w3.org/Graphics/SVG/1.1/DTD/svg11.dtd">
<!-- Generated by graphviz version 2.43.0 (0)
 -->
<!-- Title: %3 Pages: 1 -->
<svg width="614pt" height="476pt"
 viewBox="0.00 0.00 614.09 476.00" xmlns="http://www.w3.org/2000/svg" xmlns:xlink="http://www.w3.org/1999/xlink">
<g id="graph0" class="graph" transform="scale(1 1) rotate(0) translate(4 472)">
<title>%3</title>
<polygon fill="white" stroke="transparent" points="-4,4 -4,-472 610.09,-472 610.09,4 -4,4"/>
<!-- rzs -->
<g id="node1" class="node">
<title>rzs</title>
<ellipse fill="none" stroke="black" cx="31" cy="-450" rx="27" ry="18"/>
<text text-anchor="middle" x="31" y="-446.3" font-family="Times,serif" font-size="14.00">rzs</text>
</g>
<!-- qnr -->
<g id="node2" class="node">
<title>qnr</title>
<ellipse fill="none" stroke="black" cx="151" cy="-162" rx="27" ry="18"/>
<text text-anchor="middle" x="151" y="-158.3" font-family="Times,serif" font-size="14.00">qnr</text>
</g>
<!-- rzs&#45;&#45;qnr -->
<g id="edge1" class="edge">
<title>rzs&#45;&#45;qnr</title>
<path fill="none" stroke="black" d="M37.97,-432.39C59.18,-381.84 122.78,-230.27 144.01,-179.66"/>
</g>
<!-- cmg -->
<g id="node3" class="node">
<title>cmg</title>
<ellipse fill="none" stroke="black" cx="168" cy="-378" rx="30.59" ry="18"/>
<text text-anchor="middle" x="168" y="-374.3" font-family="Times,serif" font-size="14.00">cmg</text>
</g>
<!-- rzs&#45;&#45;cmg -->
<g id="edge2" class="edge">
<title>rzs&#45;&#45;cmg</title>
<path fill="none" stroke="black" d="M51.81,-438.37C77.11,-425.44 119.64,-403.71 145.63,-390.43"/>
</g>
<!-- lsr -->
<g id="node4" class="node">
<title>lsr</title>
<ellipse fill="none" stroke="black" cx="64" cy="-18" rx="27" ry="18"/>
<text text-anchor="middle" x="64" y="-14.3" font-family="Times,serif" font-size="14.00">lsr</text>
</g>
<!-- rzs&#45;&#45;lsr -->
<g id="edge3" class="edge">
<title>rzs&#45;&#45;lsr</title>
<path fill="none" stroke="black" d="M52.25,-438.45C57.34,-436.14 62.8,-433.85 68,-432 172.15,-395.02 244.43,-423.76 292,-324 343.66,-215.68 294.59,-138.97 195,-72 161.2,-49.28 116.16,-33.74 88.66,-25.62"/>
</g>
<!-- rsh -->
<g id="node5" class="node">
<title>rsh</title>
<ellipse fill="none" stroke="black" cx="27" cy="-306" rx="27" ry="18"/>
<text text-anchor="middle" x="27" y="-302.3" font-family="Times,serif" font-size="14.00">rsh</text>
</g>
<!-- rzs&#45;&#45;rsh -->
<g id="edge4" class="edge">
<title>rzs&#45;&#45;rsh</title>
<path fill="none" stroke="black" d="M30.52,-431.87C29.75,-404.58 28.25,-351.52 27.48,-324.19"/>
</g>
<!-- frs -->
<g id="node9" class="node">
<title>frs</title>
<ellipse fill="none" stroke="black" cx="121" cy="-90" rx="27" ry="18"/>
<text text-anchor="middle" x="121" y="-86.3" font-family="Times,serif" font-size="14.00">frs</text>
</g>
<!-- qnr&#45;&#45;frs -->
<g id="edge28" class="edge">
<title>qnr&#45;&#45;frs</title>
<path fill="none" stroke="black" d="M143.89,-144.41C139.11,-133.25 132.83,-118.6 128.06,-107.47"/>
</g>
<!-- cmg&#45;&#45;qnr -->
<g id="edge5" class="edge">
<title>cmg&#45;&#45;qnr</title>
<path fill="none" stroke="black" d="M166.64,-359.85C163.45,-319.78 155.56,-220.38 152.37,-180.23"/>
</g>
<!-- nvd -->
<g id="node6" class="node">
<title>nvd</title>
<ellipse fill="none" stroke="black" cx="224" cy="-234" rx="27.9" ry="18"/>
<text text-anchor="middle" x="224" y="-230.3" font-family="Times,serif" font-size="14.00">nvd</text>
</g>
<!-- cmg&#45;&#45;nvd -->
<g id="edge6" class="edge">
<title>cmg&#45;&#45;nvd</title>
<path fill="none" stroke="black" d="M169.3,-359.96C171.19,-341.56 175.68,-311.7 186,-288 192.06,-274.09 202.19,-260.22 210.46,-250.16"/>
</g>
<!-- lhk -->
<g id="node7" class="node">
<title>lhk</title>
<ellipse fill="none" stroke="black" cx="256" cy="-306" rx="27" ry="18"/>
<text text-anchor="middle" x="256" y="-302.3" font-family="Times,serif" font-size="14.00">lhk</text>
</g>
<!-- cmg&#45;&#45;lhk -->
<g id="edge7" class="edge">
<title>cmg&#45;&#45;lhk</title>
<path fill="none" stroke="black" d="M185.39,-363.17C201.01,-350.74 223.82,-332.6 239.25,-320.33"/>
</g>
<!-- rsh&#45;&#45;lsr -->
<g id="edge23" class="edge">
<title>rsh&#45;&#45;lsr</title>
<path fill="none" stroke="black" d="M29.2,-287.97C35.78,-237.1 55.24,-86.7 61.81,-35.94"/>
</g>
<!-- rsh&#45;&#45;frs -->
<g id="edge24" class="edge">
<title>rsh&#45;&#45;frs</title>
<path fill="none" stroke="black" d="M34.22,-288.56C51.72,-248.73 96.23,-147.38 113.76,-107.49"/>
</g>
<!-- nvd&#45;&#45;qnr -->
<g id="edge25" class="edge">
<title>nvd&#45;&#45;qnr</title>
<path fill="none" stroke="black" d="M208.87,-218.5C196.26,-206.4 178.39,-189.27 165.86,-177.25"/>
</g>
<!-- lhk&#45;&#45;lsr -->
<g id="edge12" class="edge">
<title>lhk&#45;&#45;lsr</title>
<path fill="none" stroke="black" d="M264.68,-288.82C269.66,-278.59 275.43,-264.9 278,-252 288.04,-201.65 269.2,-183.99 237,-144 207,-106.74 195.78,-100 157,-72 133.65,-55.14 104.48,-39.26 85.1,-29.37"/>
</g>
<!-- lhk&#45;&#45;nvd -->
<g id="edge11" class="edge">
<title>lhk&#45;&#45;nvd</title>
<path fill="none" stroke="black" d="M248.42,-288.41C243.32,-277.25 236.62,-262.6 231.53,-251.47"/>
</g>
<!-- lhk&#45;&#45;frs -->
<g id="edge13" class="edge">
<title>lhk&#45;&#45;frs</title>
<path fill="none" stroke="black" d="M261.21,-288.17C265.98,-269.7 270.93,-239.52 261,-216 237.55,-160.47 174.88,-119.92 141.92,-101.7"/>
</g>
<!-- pzl -->
<g id="node8" class="node">
<title>pzl</title>
<ellipse fill="none" stroke="black" cx="104" cy="-450" rx="27" ry="18"/>
<text text-anchor="middle" x="104" y="-446.3" font-family="Times,serif" font-size="14.00">pzl</text>
</g>
<!-- pzl&#45;&#45;lsr -->
<g id="edge10" class="edge">
<title>pzl&#45;&#45;lsr</title>
<path fill="none" stroke="black" d="M128.94,-442.59C174.85,-429.29 271.83,-393.96 313,-324 337.52,-282.33 333.74,-263.72 326,-216 313.76,-140.56 297.06,-112.11 232,-72 186.44,-43.91 124.66,-29.46 90.13,-23.12"/>
</g>
<!-- pzl&#45;&#45;rsh -->
<g id="edge9" class="edge">
<title>pzl&#45;&#45;rsh</title>
<path fill="none" stroke="black" d="M95.17,-432.71C80.31,-405.32 50.51,-350.36 35.73,-323.1"/>
</g>
<!-- pzl&#45;&#45;nvd -->
<g id="edge8" class="edge">
<title>pzl&#45;&#45;nvd</title>
<path fill="none" stroke="black" d="M129.65,-443.4C154.11,-436.61 189.83,-422.61 208,-396 212.02,-390.11 219.73,-292.33 222.74,-252.09"/>
</g>
<!-- frs&#45;&#45;lsr -->
<g id="edge30" class="edge">
<title>frs&#45;&#45;lsr</title>
<path fill="none" stroke="black" d="M108.63,-73.81C99.07,-62.07 85.9,-45.89 76.34,-34.16"/>
</g>
<!-- ntq -->
<g id="node10" class="node">
<title>ntq</title>
<ellipse fill="none" stroke="black" cx="256" cy="-450" rx="27" ry="18"/>
<text text-anchor="middle" x="256" y="-446.3" font-family="Times,serif" font-size="14.00">ntq</text>
</g>
<!-- xhk -->
<g id="node11" class="node">
<title>xhk</title>
<ellipse fill="none" stroke="black" cx="452" cy="-234" rx="27.1" ry="18"/>
<text text-anchor="middle" x="452" y="-230.3" font-family="Times,serif" font-size="14.00">xhk</text>
</g>
<!-- ntq&#45;&#45;xhk -->
<g id="edge14" class="edge">
<title>ntq&#45;&#45;xhk</title>
<path fill="none" stroke="black" d="M272.68,-435.72C285.31,-425.38 302.84,-410.41 317,-396 366.34,-345.78 418.02,-279.78 440.46,-250.33"/>
</g>
<!-- jqt -->
<g id="node12" class="node">
<title>jqt</title>
<ellipse fill="none" stroke="black" cx="564" cy="-306" rx="27" ry="18"/>
<text text-anchor="middle" x="564" y="-302.3" font-family="Times,serif" font-size="14.00">jqt</text>
</g>
<!-- ntq&#45;&#45;jqt -->
<g id="edge15" class="edge">
<title>ntq&#45;&#45;jqt</title>
<path fill="none" stroke="black" d="M281.47,-443.56C334.6,-432.09 453.71,-405.67 470,-396 488.66,-384.92 487.45,-375.14 503,-360 517.47,-345.91 534.97,-330.9 547.5,-320.46"/>
</g>
<!-- hfx -->
<g id="node13" class="node">
<title>hfx</title>
<ellipse fill="none" stroke="black" cx="434" cy="-378" rx="27" ry="18"/>
<text text-anchor="middle" x="434" y="-374.3" font-family="Times,serif" font-size="14.00">hfx</text>
</g>
<!-- ntq&#45;&#45;hfx -->
<g id="edge16" class="edge">
<title>ntq&#45;&#45;hfx</title>
<path fill="none" stroke="black" d="M278.85,-440.35C306.1,-429.99 352.99,-412.03 393,-396 399.01,-393.59 405.49,-390.93 411.48,-388.45"/>
</g>
<!-- bvb -->
<g id="node14" class="node">
<title>bvb</title>
<ellipse fill="none" stroke="black" cx="453" cy="-306" rx="27.9" ry="18"/>
<text text-anchor="middle" x="453" y="-302.3" font-family="Times,serif" font-size="14.00">bvb</text>
</g>
<!-- ntq&#45;&#45;bvb -->
<g id="edge17" class="edge">
<title>ntq&#45;&#45;bvb</title>
<path fill="none" stroke="black" d="M277.74,-439.27C298.42,-429.58 329.99,-413.64 355,-396 372.18,-383.88 414.88,-343.61 437.83,-321.63"/>
</g>
<!-- jqt&#45;&#45;xhk -->
<g id="edge22" class="edge">
<title>jqt&#45;&#45;xhk</title>
<path fill="none" stroke="black" d="M545,-293.13C524.41,-280.25 491.72,-259.83 471.09,-246.93"/>
</g>
<!-- hfx&#45;&#45;xhk -->
<g id="edge26" class="edge">
<title>hfx&#45;&#45;xhk</title>
<path fill="none" stroke="black" d="M453.23,-365.02C466.31,-355.65 482.54,-341.34 490,-324 496.33,-309.3 494.9,-303.23 490,-288 485.36,-273.56 475.16,-259.71 466.5,-249.8"/>
</g>
<!-- hfx&#45;&#45;bvb -->
<g id="edge27" class="edge">
<title>hfx&#45;&#45;bvb</title>
<path fill="none" stroke="black" d="M438.6,-360.05C441.59,-349.05 445.46,-334.76 448.44,-323.79"/>
</g>
<!-- bvb&#45;&#45;xhk -->
<g id="edge29" class="edge">
<title>bvb&#45;&#45;xhk</title>
<path fill="none" stroke="black" d="M452.75,-287.7C452.6,-276.85 452.4,-262.92 452.24,-252.1"/>
</g>
<!-- rhn -->
<g id="node15" class="node">
<title>rhn</title>
<ellipse fill="none" stroke="black" cx="379" cy="-450" rx="27" ry="18"/>
<text text-anchor="middle" x="379" y="-446.3" font-family="Times,serif" font-size="14.00">rhn</text>
</g>
<!-- rhn&#45;&#45;xhk -->
<g id="edge21" class="edge">
<title>rhn&#45;&#45;xhk</title>
<path fill="none" stroke="black" d="M405.01,-444.35C455.44,-433.68 564.64,-402.1 600,-324 606.6,-309.42 609.21,-301.08 600,-288 572.66,-249.17 514.11,-238.64 479.41,-235.88"/>
</g>
<!-- rhn&#45;&#45;jqt -->
<g id="edge20" class="edge">
<title>rhn&#45;&#45;jqt</title>
<path fill="none" stroke="black" d="M402.19,-440.59C424.92,-431.67 459.87,-416.09 486,-396 513.85,-374.58 539.3,-342.07 553.12,-322.84"/>
</g>
<!-- rhn&#45;&#45;hfx -->
<g id="edge19" class="edge">
<title>rhn&#45;&#45;hfx</title>
<path fill="none" stroke="black" d="M390.93,-433.81C400.16,-422.07 412.87,-405.89 422.09,-394.16"/>
</g>
<!-- rhn&#45;&#45;bvb -->
<g id="edge18" class="edge">
<title>rhn&#45;&#45;bvb</title>
<path fill="none" stroke="black" d="M403.72,-442.23C425.5,-434.82 455.88,-420.57 470,-396 483.17,-373.09 471.73,-341.92 462.31,-323.2"/>
</g>
</g>
</svg>
