<?xml version="1.0" encoding="UTF-8" standalone="no"?>
<!DOCTYPE svg PUBLIC "-//W3C//DTD SVG 1.1//EN"
 "http://www.w3.org/Graphics/SVG/1.1/DTD/svg11.dtd">
<!-- Generated by graphviz version 2.43.0 (0)
 -->
<!-- Title: %3 Pages: 1 -->
<svg width="588pt" height="620pt"
 viewBox="0.00 0.00 587.75 620.00" xmlns="http://www.w3.org/2000/svg" xmlns:xlink="http://www.w3.org/1999/xlink">
<g id="graph0" class="graph" transform="scale(1 1) rotate(0) translate(4 616)">
<title>%3</title>
<polygon fill="white" stroke="transparent" points="-4,4 -4,-616 583.75,-616 583.75,4 -4,4"/>
<!-- jqt -->
<g id="node1" class="node">
<title>jqt</title>
<ellipse fill="none" stroke="black" cx="27" cy="-594" rx="27" ry="18"/>
<text text-anchor="middle" x="27" y="-590.3" font-family="Times,serif" font-size="14.00">jqt</text>
</g>
<!-- rhn -->
<g id="node2" class="node">
<title>rhn</title>
<ellipse fill="none" stroke="black" cx="67" cy="-450" rx="27" ry="18"/>
<text text-anchor="middle" x="67" y="-446.3" font-family="Times,serif" font-size="14.00">rhn</text>
</g>
<!-- jqt&#45;&#45;rhn -->
<g id="edge1" class="edge">
<title>jqt&#45;&#45;rhn</title>
<path fill="none" stroke="black" d="M31.75,-576.15C39.44,-548.82 54.57,-495.14 62.26,-467.82"/>
</g>
<!-- xhk -->
<g id="node3" class="node">
<title>xhk</title>
<ellipse fill="none" stroke="black" cx="114" cy="-522" rx="27.1" ry="18"/>
<text text-anchor="middle" x="114" y="-518.3" font-family="Times,serif" font-size="14.00">xhk</text>
</g>
<!-- jqt&#45;&#45;xhk -->
<g id="edge2" class="edge">
<title>jqt&#45;&#45;xhk</title>
<path fill="none" stroke="black" d="M43.77,-579.5C59.18,-567.11 81.89,-548.84 97.28,-536.46"/>
</g>
<!-- nvd -->
<g id="node4" class="node">
<title>nvd</title>
<ellipse fill="none" stroke="black" cx="210" cy="-522" rx="27.9" ry="18"/>
<text text-anchor="middle" x="210" y="-518.3" font-family="Times,serif" font-size="14.00">nvd</text>
</g>
<!-- jqt&#45;&#45;nvd -->
<g id="edge3" class="edge">
<title>jqt&#45;&#45;nvd</title>
<path fill="none" stroke="black" d="M49.81,-584.28C84.78,-570.9 151.3,-545.45 186.62,-531.94"/>
</g>
<!-- ntq -->
<g id="node5" class="node">
<title>ntq</title>
<ellipse fill="none" stroke="black" cx="47" cy="-18" rx="27" ry="18"/>
<text text-anchor="middle" x="47" y="-14.3" font-family="Times,serif" font-size="14.00">ntq</text>
</g>
<!-- jqt&#45;&#45;ntq -->
<g id="edge4" class="edge">
<title>jqt&#45;&#45;ntq</title>
<path fill="none" stroke="black" d="M27.35,-575.61C27.97,-546.08 29.34,-484.26 31,-432 35.88,-278.52 43.78,-93.04 46.24,-36.31"/>
</g>
<!-- hfx -->
<g id="node12" class="node">
<title>hfx</title>
<ellipse fill="none" stroke="black" cx="107" cy="-306" rx="27" ry="18"/>
<text text-anchor="middle" x="107" y="-302.3" font-family="Times,serif" font-size="14.00">hfx</text>
</g>
<!-- rhn&#45;&#45;hfx -->
<g id="edge26" class="edge">
<title>rhn&#45;&#45;hfx</title>
<path fill="none" stroke="black" d="M71.75,-432.15C79.44,-404.82 94.57,-351.14 102.26,-323.82"/>
</g>
<!-- bvb -->
<g id="node13" class="node">
<title>bvb</title>
<ellipse fill="none" stroke="black" cx="149" cy="-90" rx="27.9" ry="18"/>
<text text-anchor="middle" x="149" y="-86.3" font-family="Times,serif" font-size="14.00">bvb</text>
</g>
<!-- rhn&#45;&#45;bvb -->
<g id="edge25" class="edge">
<title>rhn&#45;&#45;bvb</title>
<path fill="none" stroke="black" d="M65.51,-431.87C63.35,-402.21 60.67,-339.54 71,-288 84.5,-220.67 101.39,-207.72 127,-144 131.9,-131.8 137.6,-118.09 141.97,-107.67"/>
</g>
<!-- xhk&#45;&#45;rhn -->
<g id="edge13" class="edge">
<title>xhk&#45;&#45;rhn</title>
<path fill="none" stroke="black" d="M103.33,-505.12C95.64,-493.66 85.3,-478.26 77.62,-466.82"/>
</g>
<!-- xhk&#45;&#45;ntq -->
<g id="edge15" class="edge">
<title>xhk&#45;&#45;ntq</title>
<path fill="none" stroke="black" d="M123.97,-504.92C161.1,-442.78 284.31,-214.7 186,-72 160.8,-35.42 106.71,-24.07 73.94,-20.56"/>
</g>
<!-- xhk&#45;&#45;hfx -->
<g id="edge12" class="edge">
<title>xhk&#45;&#45;hfx</title>
<path fill="none" stroke="black" d="M113.44,-503.85C112.13,-463.78 108.88,-364.38 107.56,-324.23"/>
</g>
<!-- xhk&#45;&#45;bvb -->
<g id="edge14" class="edge">
<title>xhk&#45;&#45;bvb</title>
<path fill="none" stroke="black" d="M118.35,-503.91C120.86,-493.57 123.92,-480.09 126,-468 147.73,-341.48 145.05,-308.34 148,-180 148.58,-154.97 148.82,-125.98 148.93,-108.06"/>
</g>
<!-- cmg -->
<g id="node6" class="node">
<title>cmg</title>
<ellipse fill="none" stroke="black" cx="302" cy="-162" rx="30.59" ry="18"/>
<text text-anchor="middle" x="302" y="-158.3" font-family="Times,serif" font-size="14.00">cmg</text>
</g>
<!-- nvd&#45;&#45;cmg -->
<g id="edge5" class="edge">
<title>nvd&#45;&#45;cmg</title>
<path fill="none" stroke="black" d="M214.31,-504.21C229.73,-444.22 282.02,-240.76 297.59,-180.17"/>
</g>
<!-- pzl -->
<g id="node7" class="node">
<title>pzl</title>
<ellipse fill="none" stroke="black" cx="418" cy="-450" rx="27" ry="18"/>
<text text-anchor="middle" x="418" y="-446.3" font-family="Times,serif" font-size="14.00">pzl</text>
</g>
<!-- nvd&#45;&#45;pzl -->
<g id="edge6" class="edge">
<title>nvd&#45;&#45;pzl</title>
<path fill="none" stroke="black" d="M234.45,-513.07C265.88,-502.85 322.11,-484.41 370,-468 378.03,-465.25 386.79,-462.17 394.6,-459.4"/>
</g>
<!-- qnr -->
<g id="node8" class="node">
<title>qnr</title>
<ellipse fill="none" stroke="black" cx="407" cy="-234" rx="27" ry="18"/>
<text text-anchor="middle" x="407" y="-230.3" font-family="Times,serif" font-size="14.00">qnr</text>
</g>
<!-- nvd&#45;&#45;qnr -->
<g id="edge7" class="edge">
<title>nvd&#45;&#45;qnr</title>
<path fill="none" stroke="black" d="M232.26,-511.02C268.2,-493.56 338.02,-453.74 368,-396 390.23,-353.18 365.03,-334.18 379,-288 382.98,-274.85 390.3,-261.17 396.46,-251"/>
</g>
<!-- lhk -->
<g id="node9" class="node">
<title>lhk</title>
<ellipse fill="none" stroke="black" cx="332" cy="-378" rx="27" ry="18"/>
<text text-anchor="middle" x="332" y="-374.3" font-family="Times,serif" font-size="14.00">lhk</text>
</g>
<!-- nvd&#45;&#45;lhk -->
<g id="edge8" class="edge">
<title>nvd&#45;&#45;lhk</title>
<path fill="none" stroke="black" d="M223.06,-505.8C246.54,-478.47 295.62,-421.34 319.04,-394.09"/>
</g>
<!-- cmg&#45;&#45;bvb -->
<g id="edge32" class="edge">
<title>cmg&#45;&#45;bvb</title>
<path fill="none" stroke="black" d="M278.43,-150.22C249.26,-136.87 199.95,-114.31 171.35,-101.23"/>
</g>
<!-- rsh -->
<g id="node10" class="node">
<title>rsh</title>
<ellipse fill="none" stroke="black" cx="480" cy="-378" rx="27" ry="18"/>
<text text-anchor="middle" x="480" y="-374.3" font-family="Times,serif" font-size="14.00">rsh</text>
</g>
<!-- pzl&#45;&#45;rsh -->
<g id="edge9" class="edge">
<title>pzl&#45;&#45;rsh</title>
<path fill="none" stroke="black" d="M431.15,-434.15C441.67,-422.28 456.35,-405.7 466.87,-393.82"/>
</g>
<!-- lsr -->
<g id="node11" class="node">
<title>lsr</title>
<ellipse fill="none" stroke="black" cx="422" cy="-162" rx="27" ry="18"/>
<text text-anchor="middle" x="422" y="-158.3" font-family="Times,serif" font-size="14.00">lsr</text>
</g>
<!-- pzl&#45;&#45;lsr -->
<g id="edge10" class="edge">
<title>pzl&#45;&#45;lsr</title>
<path fill="none" stroke="black" d="M423.36,-432.21C430.75,-408.4 443.95,-363.32 451,-324 456.68,-292.35 456.44,-284.11 458,-252 458.78,-236.02 462.7,-231.29 458,-216 453.62,-201.75 443.96,-187.9 435.75,-177.93"/>
</g>
<!-- pzl&#45;&#45;hfx -->
<g id="edge11" class="edge">
<title>pzl&#45;&#45;hfx</title>
<path fill="none" stroke="black" d="M395.87,-439.63C371.36,-429.19 330.71,-411.71 296,-396 234.71,-368.26 163,-333.99 128.16,-317.22"/>
</g>
<!-- qnr&#45;&#45;cmg -->
<g id="edge31" class="edge">
<title>qnr&#45;&#45;cmg</title>
<path fill="none" stroke="black" d="M388.23,-220.49C369.47,-207.98 340.75,-188.83 321.68,-176.12"/>
</g>
<!-- lhk&#45;&#45;cmg -->
<g id="edge23" class="edge">
<title>lhk&#45;&#45;cmg</title>
<path fill="none" stroke="black" d="M321.88,-360.99C316.03,-350.82 309.22,-337.14 306,-324 293.48,-272.95 297.19,-210.05 300.05,-180.24"/>
</g>
<!-- lhk&#45;&#45;lsr -->
<g id="edge24" class="edge">
<title>lhk&#45;&#45;lsr</title>
<path fill="none" stroke="black" d="M332.69,-359.67C334.64,-328.61 342.14,-262.4 371,-216 380.31,-201.04 394.4,-186.8 405.41,-176.86"/>
</g>
<!-- frs -->
<g id="node15" class="node">
<title>frs</title>
<ellipse fill="none" stroke="black" cx="415" cy="-306" rx="27" ry="18"/>
<text text-anchor="middle" x="415" y="-302.3" font-family="Times,serif" font-size="14.00">frs</text>
</g>
<!-- lhk&#45;&#45;frs -->
<g id="edge22" class="edge">
<title>lhk&#45;&#45;frs</title>
<path fill="none" stroke="black" d="M348.4,-363.17C363.04,-350.82 384.37,-332.83 398.92,-320.56"/>
</g>
<!-- rsh&#45;&#45;lsr -->
<g id="edge21" class="edge">
<title>rsh&#45;&#45;lsr</title>
<path fill="none" stroke="black" d="M491.25,-361.22C511.27,-331.01 548.46,-263.75 520,-216 504.35,-189.75 470.69,-175.71 447.21,-168.81"/>
</g>
<!-- rsh&#45;&#45;frs -->
<g id="edge20" class="edge">
<title>rsh&#45;&#45;frs</title>
<path fill="none" stroke="black" d="M466.22,-362.15C455.18,-350.28 439.79,-333.7 428.76,-321.82"/>
</g>
<!-- hfx&#45;&#45;ntq -->
<g id="edge28" class="edge">
<title>hfx&#45;&#45;ntq</title>
<path fill="none" stroke="black" d="M103.43,-287.97C92.75,-237.1 61.2,-86.7 50.55,-35.94"/>
</g>
<!-- hfx&#45;&#45;bvb -->
<g id="edge27" class="edge">
<title>hfx&#45;&#45;bvb</title>
<path fill="none" stroke="black" d="M110.37,-287.85C118.25,-247.68 137.83,-147.89 145.68,-107.94"/>
</g>
<!-- bvb&#45;&#45;ntq -->
<g id="edge33" class="edge">
<title>bvb&#45;&#45;ntq</title>
<path fill="none" stroke="black" d="M130.29,-76.16C111.77,-63.45 83.6,-44.12 65.25,-31.52"/>
</g>
<!-- rzs -->
<g id="node14" class="node">
<title>rzs</title>
<ellipse fill="none" stroke="black" cx="164" cy="-594" rx="27" ry="18"/>
<text text-anchor="middle" x="164" y="-590.3" font-family="Times,serif" font-size="14.00">rzs</text>
</g>
<!-- rzs&#45;&#45;cmg -->
<g id="edge18" class="edge">
<title>rzs&#45;&#45;cmg</title>
<path fill="none" stroke="black" d="M191.05,-591.64C239.15,-588.33 341.77,-577.13 419,-540 492.57,-504.63 518.44,-476.32 533,-396 548.96,-307.99 514.56,-269.66 443,-216 408.79,-190.35 360.77,-175.84 330.52,-168.71"/>
</g>
<!-- rzs&#45;&#45;qnr -->
<g id="edge17" class="edge">
<title>rzs&#45;&#45;qnr</title>
<path fill="none" stroke="black" d="M190.69,-590.22C250.96,-582.48 398.5,-555.18 477,-468 511.15,-430.08 533.91,-407.79 516,-360 497.61,-310.93 450.28,-268.45 424.45,-247.99"/>
</g>
<!-- rzs&#45;&#45;rsh -->
<g id="edge16" class="edge">
<title>rzs&#45;&#45;rsh</title>
<path fill="none" stroke="black" d="M188.13,-585.54C250.81,-565.73 416.5,-510.41 454,-468 471.91,-447.74 477.51,-415.74 479.25,-396.14"/>
</g>
<!-- rzs&#45;&#45;lsr -->
<g id="edge19" class="edge">
<title>rzs&#45;&#45;lsr</title>
<path fill="none" stroke="black" d="M191.31,-593.64C246.04,-593.79 371.65,-588.35 462,-540 501.08,-519.09 509.83,-506.94 531,-468 584.53,-369.55 602.64,-308.23 539,-216 518.17,-185.81 475.8,-172.53 448.17,-166.9"/>
</g>
<!-- frs&#45;&#45;qnr -->
<g id="edge29" class="edge">
<title>frs&#45;&#45;qnr</title>
<path fill="none" stroke="black" d="M413.02,-287.7C411.78,-276.85 410.19,-262.92 408.95,-252.1"/>
</g>
<!-- frs&#45;&#45;lsr -->
<g id="edge30" class="edge">
<title>frs&#45;&#45;lsr</title>
<path fill="none" stroke="black" d="M426.02,-289.13C432.35,-279.01 439.69,-265.33 443,-252 446.85,-236.47 446,-231.72 443,-216 440.55,-203.17 435.04,-189.48 430.28,-179.23"/>
</g>
</g>
</svg>
