<?xml version="1.0" encoding="UTF-8" standalone="no"?>
<!DOCTYPE svg PUBLIC "-//W3C//DTD SVG 1.1//EN"
 "http://www.w3.org/Graphics/SVG/1.1/DTD/svg11.dtd">
<!-- Generated by graphviz version 2.43.0 (0)
 -->
<!-- Title: %3 Pages: 1 -->
<svg width="711pt" height="476pt"
 viewBox="0.00 0.00 711.49 476.00" xmlns="http://www.w3.org/2000/svg" xmlns:xlink="http://www.w3.org/1999/xlink">
<g id="graph0" class="graph" transform="scale(1 1) rotate(0) translate(4 472)">
<title>%3</title>
<polygon fill="white" stroke="transparent" points="-4,4 -4,-472 707.49,-472 707.49,4 -4,4"/>
<!-- jqt -->
<g id="node1" class="node">
<title>jqt</title>
<ellipse fill="none" stroke="black" cx="245.95" cy="-378" rx="27" ry="18"/>
<text text-anchor="middle" x="245.95" y="-374.3" font-family="Times,serif" font-size="14.00">jqt</text>
</g>
<!-- rhn -->
<g id="node2" class="node">
<title>rhn</title>
<ellipse fill="none" stroke="black" cx="64.95" cy="-90" rx="27" ry="18"/>
<text text-anchor="middle" x="64.95" y="-86.3" font-family="Times,serif" font-size="14.00">rhn</text>
</g>
<!-- jqt&#45;&#45;rhn -->
<g id="edge1" class="edge">
<title>jqt&#45;&#45;rhn</title>
<path fill="none" stroke="black" d="M257.47,-361.43C269.21,-343.55 284.44,-313.42 274.95,-288 239.97,-194.34 131.47,-126.78 85.68,-101.71"/>
</g>
<!-- xhk -->
<g id="node3" class="node">
<title>xhk</title>
<ellipse fill="none" stroke="black" cx="129.95" cy="-306" rx="27.1" ry="18"/>
<text text-anchor="middle" x="129.95" y="-302.3" font-family="Times,serif" font-size="14.00">xhk</text>
</g>
<!-- jqt&#45;&#45;xhk -->
<g id="edge2" class="edge">
<title>jqt&#45;&#45;xhk</title>
<path fill="none" stroke="black" d="M226.53,-365.28C205.12,-352.36 170.86,-331.69 149.43,-318.75"/>
</g>
<!-- nvd -->
<g id="node4" class="node">
<title>nvd</title>
<ellipse fill="none" stroke="black" cx="434.95" cy="-234" rx="27.9" ry="18"/>
<text text-anchor="middle" x="434.95" y="-230.3" font-family="Times,serif" font-size="14.00">nvd</text>
</g>
<!-- jqt&#45;&#45;nvd -->
<g id="edge3" class="edge">
<title>jqt&#45;&#45;nvd</title>
<path fill="none" stroke="black" d="M262.85,-363.84C276.46,-353.19 296.04,-337.76 312.95,-324 332.28,-308.27 336.01,-302.96 355.95,-288 375.76,-273.13 399.48,-257.49 415.72,-247.09"/>
</g>
<!-- ntq -->
<g id="node5" class="node">
<title>ntq</title>
<ellipse fill="none" stroke="black" cx="69.95" cy="-18" rx="27" ry="18"/>
<text text-anchor="middle" x="69.95" y="-14.3" font-family="Times,serif" font-size="14.00">ntq</text>
</g>
<!-- jqt&#45;&#45;ntq -->
<g id="edge4" class="edge">
<title>jqt&#45;&#45;ntq</title>
<path fill="none" stroke="black" d="M250.41,-360.18C256.5,-336.32 267.07,-291.2 270.95,-252 272.52,-236.08 271.28,-232 270.95,-216 270.28,-183.98 281.67,-172.94 267.95,-144 265.37,-138.56 192,-75.28 186.95,-72 156.65,-52.32 117.85,-36.33 93.43,-27.23"/>
</g>
<!-- xhk&#45;&#45;rhn -->
<g id="edge29" class="edge">
<title>xhk&#45;&#45;rhn</title>
<path fill="none" stroke="black" d="M132.32,-288.05C137.05,-251.98 146.21,-168.89 133.95,-144 124.2,-124.22 103.13,-109.76 86.82,-100.99"/>
</g>
<!-- xhk&#45;&#45;ntq -->
<g id="edge30" class="edge">
<title>xhk&#45;&#45;ntq</title>
<path fill="none" stroke="black" d="M136.41,-288.19C146.87,-258.5 164.9,-195.09 149.95,-144 136.92,-99.49 102.66,-55.77 83.47,-33.74"/>
</g>
<!-- pzl -->
<g id="node11" class="node">
<title>pzl</title>
<ellipse fill="none" stroke="black" cx="431.95" cy="-162" rx="27" ry="18"/>
<text text-anchor="middle" x="431.95" y="-158.3" font-family="Times,serif" font-size="14.00">pzl</text>
</g>
<!-- nvd&#45;&#45;pzl -->
<g id="edge27" class="edge">
<title>nvd&#45;&#45;pzl</title>
<path fill="none" stroke="black" d="M434.21,-215.7C433.74,-204.85 433.14,-190.92 432.68,-180.1"/>
</g>
<!-- qnr -->
<g id="node15" class="node">
<title>qnr</title>
<ellipse fill="none" stroke="black" cx="504.95" cy="-162" rx="27" ry="18"/>
<text text-anchor="middle" x="504.95" y="-158.3" font-family="Times,serif" font-size="14.00">qnr</text>
</g>
<!-- nvd&#45;&#45;qnr -->
<g id="edge28" class="edge">
<title>nvd&#45;&#45;qnr</title>
<path fill="none" stroke="black" d="M449.45,-218.5C461.47,-206.48 478.45,-189.49 490.46,-177.49"/>
</g>
<!-- bvb -->
<g id="node6" class="node">
<title>bvb</title>
<ellipse fill="none" stroke="black" cx="27.95" cy="-450" rx="27.9" ry="18"/>
<text text-anchor="middle" x="27.95" y="-446.3" font-family="Times,serif" font-size="14.00">bvb</text>
</g>
<!-- bvb&#45;&#45;rhn -->
<g id="edge6" class="edge">
<title>bvb&#45;&#45;rhn</title>
<path fill="none" stroke="black" d="M27.5,-431.94C27.09,-414.02 26.6,-385.03 26.95,-360 27.39,-327.99 25.62,-319.84 28.95,-288 35.99,-220.74 53.11,-141.97 60.93,-108"/>
</g>
<!-- bvb&#45;&#45;xhk -->
<g id="edge7" class="edge">
<title>bvb&#45;&#45;xhk</title>
<path fill="none" stroke="black" d="M48.98,-437.9C64.74,-428.6 85.76,-413.99 98.95,-396 115,-374.09 123.27,-343.17 127.1,-324.14"/>
</g>
<!-- bvb&#45;&#45;ntq -->
<g id="edge9" class="edge">
<title>bvb&#45;&#45;ntq</title>
<path fill="none" stroke="black" d="M51.04,-439.73C71.23,-430.78 100.44,-415.69 120.95,-396 148.17,-369.86 155.54,-360.27 165.95,-324 197.01,-215.68 205.23,-162.4 137.95,-72 124.99,-54.59 104.9,-39.9 89.91,-30.43"/>
</g>
<!-- cmg -->
<g id="node7" class="node">
<title>cmg</title>
<ellipse fill="none" stroke="black" cx="395.95" cy="-306" rx="30.59" ry="18"/>
<text text-anchor="middle" x="395.95" y="-302.3" font-family="Times,serif" font-size="14.00">cmg</text>
</g>
<!-- bvb&#45;&#45;cmg -->
<g id="edge5" class="edge">
<title>bvb&#45;&#45;cmg</title>
<path fill="none" stroke="black" d="M55.93,-447.31C104.15,-443.51 205.12,-431.63 281.95,-396 322.04,-377.41 360.89,-342.31 381.25,-322.19"/>
</g>
<!-- hfx -->
<g id="node8" class="node">
<title>hfx</title>
<ellipse fill="none" stroke="black" cx="62.95" cy="-378" rx="27" ry="18"/>
<text text-anchor="middle" x="62.95" y="-374.3" font-family="Times,serif" font-size="14.00">hfx</text>
</g>
<!-- bvb&#45;&#45;hfx -->
<g id="edge8" class="edge">
<title>bvb&#45;&#45;hfx</title>
<path fill="none" stroke="black" d="M36.07,-432.76C41.64,-421.62 49.02,-406.87 54.63,-395.63"/>
</g>
<!-- cmg&#45;&#45;nvd -->
<g id="edge24" class="edge">
<title>cmg&#45;&#45;nvd</title>
<path fill="none" stroke="black" d="M404.99,-288.76C411.29,-277.46 419.66,-262.44 425.95,-251.15"/>
</g>
<!-- rzs -->
<g id="node13" class="node">
<title>rzs</title>
<ellipse fill="none" stroke="black" cx="196.95" cy="-18" rx="27" ry="18"/>
<text text-anchor="middle" x="196.95" y="-14.3" font-family="Times,serif" font-size="14.00">rzs</text>
</g>
<!-- cmg&#45;&#45;rzs -->
<g id="edge22" class="edge">
<title>cmg&#45;&#45;rzs</title>
<path fill="none" stroke="black" d="M384.68,-288.8C349.57,-238.35 242.45,-84.39 207.85,-34.67"/>
</g>
<!-- cmg&#45;&#45;qnr -->
<g id="edge23" class="edge">
<title>cmg&#45;&#45;qnr</title>
<path fill="none" stroke="black" d="M418.72,-293.96C435.5,-284.8 457.77,-270.32 471.95,-252 488.79,-230.23 497.7,-198.99 501.86,-179.9"/>
</g>
<!-- hfx&#45;&#45;rhn -->
<g id="edge16" class="edge">
<title>hfx&#45;&#45;rhn</title>
<path fill="none" stroke="black" d="M68.3,-360.16C79.8,-321.55 104.53,-223.87 87.95,-144 85.26,-131.04 79.23,-117.35 74.01,-107.13"/>
</g>
<!-- hfx&#45;&#45;xhk -->
<g id="edge15" class="edge">
<title>hfx&#45;&#45;xhk</title>
<path fill="none" stroke="black" d="M76.83,-362.5C88.18,-350.64 104.16,-333.95 115.62,-321.97"/>
</g>
<!-- hfx&#45;&#45;ntq -->
<g id="edge18" class="edge">
<title>hfx&#45;&#45;ntq</title>
<path fill="none" stroke="black" d="M56.16,-360.25C38.17,-313.33 -6.97,-177.12 28.95,-72 34.06,-57.03 45.31,-43.01 54.74,-33.15"/>
</g>
<!-- hfx&#45;&#45;pzl -->
<g id="edge17" class="edge">
<title>hfx&#45;&#45;pzl</title>
<path fill="none" stroke="black" d="M84.08,-366.66C105.06,-356.27 138.04,-339.6 165.95,-324 260.42,-271.19 370.08,-202.34 413.18,-174.97"/>
</g>
<!-- lsr -->
<g id="node9" class="node">
<title>lsr</title>
<ellipse fill="none" stroke="black" cx="206.95" cy="-450" rx="27" ry="18"/>
<text text-anchor="middle" x="206.95" y="-446.3" font-family="Times,serif" font-size="14.00">lsr</text>
</g>
<!-- rsh -->
<g id="node10" class="node">
<title>rsh</title>
<ellipse fill="none" stroke="black" cx="346.95" cy="-90" rx="27" ry="18"/>
<text text-anchor="middle" x="346.95" y="-86.3" font-family="Times,serif" font-size="14.00">rsh</text>
</g>
<!-- lsr&#45;&#45;rsh -->
<g id="edge10" class="edge">
<title>lsr&#45;&#45;rsh</title>
<path fill="none" stroke="black" d="M233.38,-446.3C279.01,-440.98 374.87,-426.86 449.95,-396 456.85,-393.16 673.35,-258.54 676.95,-252 708.32,-194.94 637.21,-170.98 577.95,-144 541.25,-127.29 425.34,-105.1 373.02,-95.62"/>
</g>
<!-- lsr&#45;&#45;pzl -->
<g id="edge11" class="edge">
<title>lsr&#45;&#45;pzl</title>
<path fill="none" stroke="black" d="M233.95,-449.31C277.67,-448.42 364.55,-440.65 418.95,-396 483.41,-343.09 498.44,-295.08 471.95,-216 466.97,-201.13 455.99,-187.11 446.79,-177.22"/>
</g>
<!-- lhk -->
<g id="node12" class="node">
<title>lhk</title>
<ellipse fill="none" stroke="black" cx="382.95" cy="-378" rx="27" ry="18"/>
<text text-anchor="middle" x="382.95" y="-374.3" font-family="Times,serif" font-size="14.00">lhk</text>
</g>
<!-- lsr&#45;&#45;lhk -->
<g id="edge12" class="edge">
<title>lsr&#45;&#45;lhk</title>
<path fill="none" stroke="black" d="M229.6,-439.99C263.39,-426.55 326.64,-401.39 360.39,-387.97"/>
</g>
<!-- lsr&#45;&#45;rzs -->
<g id="edge13" class="edge">
<title>lsr&#45;&#45;rzs</title>
<path fill="none" stroke="black" d="M234.05,-448.04C346.8,-442.8 769.46,-410.14 693.95,-216 621.27,-29.16 317.41,-17.36 224.23,-18.24"/>
</g>
<!-- frs -->
<g id="node14" class="node">
<title>frs</title>
<ellipse fill="none" stroke="black" cx="640.95" cy="-234" rx="27" ry="18"/>
<text text-anchor="middle" x="640.95" y="-230.3" font-family="Times,serif" font-size="14.00">frs</text>
</g>
<!-- lsr&#45;&#45;frs -->
<g id="edge14" class="edge">
<title>lsr&#45;&#45;frs</title>
<path fill="none" stroke="black" d="M234.04,-449.01C287.17,-448 407.57,-440.52 495.95,-396 562.3,-362.58 612.57,-284.9 632.09,-251.14"/>
</g>
<!-- rsh&#45;&#45;rzs -->
<g id="edge32" class="edge">
<title>rsh&#45;&#45;rzs</title>
<path fill="none" stroke="black" d="M325.46,-78.97C296.94,-65.66 246.89,-42.31 218.4,-29.01"/>
</g>
<!-- pzl&#45;&#45;rsh -->
<g id="edge31" class="edge">
<title>pzl&#45;&#45;rsh</title>
<path fill="none" stroke="black" d="M415.56,-147.5C400.51,-135.11 378.32,-116.84 363.29,-104.46"/>
</g>
<!-- lhk&#45;&#45;nvd -->
<g id="edge20" class="edge">
<title>lhk&#45;&#45;nvd</title>
<path fill="none" stroke="black" d="M401.44,-364.58C413.78,-355.1 428.98,-340.83 435.95,-324 445.65,-300.59 442.51,-270.65 439,-252.15"/>
</g>
<!-- lhk&#45;&#45;cmg -->
<g id="edge19" class="edge">
<title>lhk&#45;&#45;cmg</title>
<path fill="none" stroke="black" d="M386.09,-360.05C388.11,-349.21 390.71,-335.18 392.74,-324.28"/>
</g>
<!-- lhk&#45;&#45;frs -->
<g id="edge21" class="edge">
<title>lhk&#45;&#45;frs</title>
<path fill="none" stroke="black" d="M403.19,-365.86C451.42,-339.31 572.66,-272.58 620.8,-246.09"/>
</g>
<!-- frs&#45;&#45;rsh -->
<g id="edge25" class="edge">
<title>frs&#45;&#45;rsh</title>
<path fill="none" stroke="black" d="M628.29,-218.07C610.69,-198.26 576.9,-163.5 540.95,-144 485.7,-114.04 412.24,-100.01 373.48,-94.32"/>
</g>
<!-- frs&#45;&#45;qnr -->
<g id="edge26" class="edge">
<title>frs&#45;&#45;qnr</title>
<path fill="none" stroke="black" d="M620.29,-222.37C594.73,-209.21 551.45,-186.93 525.8,-173.73"/>
</g>
<!-- qnr&#45;&#45;rzs -->
<g id="edge33" class="edge">
<title>qnr&#45;&#45;rzs</title>
<path fill="none" stroke="black" d="M484.12,-150.53C478.92,-148.17 473.3,-145.82 467.95,-144 400.18,-120.93 375.24,-139.5 310.95,-108 288.26,-96.88 286.8,-87.63 266.95,-72 249.22,-58.05 228.59,-42.51 214.35,-31.89"/>
</g>
</g>
</svg>
